<svg xmlns="http://www.w3.org/2000/svg" version="1.1" xmlns:xlink="http://www.w3.org/1999/xlink" xmlns:svgjs="http://svgjs.dev/svgjs" width="1500" height="397" viewBox="0 0 1500 397"><g transform="matrix(1,0,0,1,-0.909090900516162,-0.5835168011013252)"><svg viewBox="0 0 396 105" data-background-color="#f9f9f9" preserveAspectRatio="xMidYMid meet" height="397" width="1500" xmlns="http://www.w3.org/2000/svg" xmlns:xlink="http://www.w3.org/1999/xlink"><g id="tight-bounds" transform="matrix(1,0,0,1,0.23999999773627678,0.1543306400897677)"><svg viewBox="0 0 395.52 104.69133871982046" height="104.69133871982046" width="395.52"><g><svg viewBox="0 0 395.52 104.69133871982046" height="104.69133871982046" width="395.52"><g><svg viewBox="0 0 395.52 104.69133871982046" height="104.69133871982046" width="395.52"><g id="textblocktransform"><svg viewBox="0 0 395.52 104.69133871982046" height="104.69133871982046" width="395.52" id="textblock"><g><svg viewBox="0 0 395.52 104.69133871982046" height="104.69133871982046" width="395.52"><g transform="matrix(1,0,0,1,0,0)"><svg width="395.52" viewBox="3.5 -35.5 135.9967567552 36" height="104.69133871982046" data-palette-color="#111111"><g class="wordmark-text-0" data-fill-palette-color="primary" id="text-0"><path d="M11.2 0L4.75 0Q4.2 0 3.85-0.35 3.5-0.7 3.5-1.25L3.5-1.25 3.5-33.75Q3.5-34.3 3.85-34.65 4.2-35 4.75-35L4.75-35 11.2-35Q11.75-35 12.13-34.65 12.5-34.3 12.5-33.75L12.5-33.75 12.5-21.7 24.8-21.7 24.8-33.75Q24.8-34.3 25.15-34.65 25.5-35 26.05-35L26.05-35 32.5-35Q33.05-35 33.4-34.65 33.75-34.3 33.75-33.75L33.75-33.75 33.75-1.25Q33.75-0.75 33.4-0.38 33.05 0 32.5 0L32.5 0 26.05 0Q25.5 0 25.15-0.38 24.8-0.75 24.8-1.25L24.8-1.25 24.8-13.7 12.5-13.7 12.5-1.25Q12.5-0.75 12.13-0.38 11.75 0 11.2 0L11.2 0ZM55.1 0.5L55.1 0.5Q50.4 0.5 47-1.05 43.6-2.6 41.72-5.6 39.85-8.6 39.65-13.05L39.65-13.05Q39.6-15.1 39.6-17.45 39.6-19.8 39.65-21.95L39.65-21.95Q39.85-26.3 41.75-29.35 43.65-32.4 47.05-33.95 50.45-35.5 55.1-35.5L55.1-35.5Q58.4-35.5 61.2-34.68 64-33.85 66.1-32.27 68.2-30.7 69.37-28.48 70.55-26.25 70.6-23.45L70.6-23.45Q70.65-23 70.32-22.7 70-22.4 69.55-22.4L69.55-22.4 62.8-22.4Q62.15-22.4 61.8-22.68 61.45-22.95 61.2-23.7L61.2-23.7Q60.5-26.35 58.92-27.33 57.35-28.3 55.05-28.3L55.05-28.3Q52.3-28.3 50.7-26.78 49.1-25.25 48.95-21.7L48.95-21.7Q48.8-17.6 48.95-13.3L48.95-13.3Q49.1-9.75 50.7-8.22 52.3-6.7 55.05-6.7L55.05-6.7Q57.35-6.7 58.95-7.7 60.55-8.7 61.2-11.3L61.2-11.3Q61.4-12.05 61.77-12.33 62.15-12.6 62.8-12.6L62.8-12.6 69.55-12.6Q70-12.6 70.32-12.3 70.65-12 70.6-11.55L70.6-11.55Q70.55-8.75 69.37-6.53 68.2-4.3 66.1-2.73 64-1.15 61.2-0.33 58.4 0.5 55.1 0.5ZM83.84 0L77.09 0Q76.55 0 76.19-0.38 75.84-0.75 75.84-1.25L75.84-1.25 75.84-33.75Q75.84-34.3 76.19-34.65 76.55-35 77.09-35L77.09-35 91.09-35Q95.25-35 98.32-33.73 101.39-32.45 103.12-29.9 104.84-27.35 104.84-23.45L104.84-23.45Q104.84-19.6 103.12-17.1 101.39-14.6 98.32-13.4 95.25-12.2 91.09-12.2L91.09-12.2 85.14-12.2 85.14-1.25Q85.14-0.75 84.77-0.38 84.39 0 83.84 0L83.84 0ZM85-28.05L85-19.1 90.84-19.1Q93-19.1 94.27-20.2 95.55-21.3 95.55-23.55L95.55-23.55Q95.55-25.45 94.44-26.75 93.34-28.05 90.84-28.05L90.84-28.05 85-28.05ZM123.99 0.5L123.99 0.5Q119.29 0.5 115.89-1.05 112.49-2.6 110.62-5.6 108.74-8.6 108.54-13.05L108.54-13.05Q108.49-15.1 108.49-17.45 108.49-19.8 108.54-21.95L108.54-21.95Q108.74-26.3 110.64-29.35 112.54-32.4 115.94-33.95 119.34-35.5 123.99-35.5L123.99-35.5Q127.29-35.5 130.09-34.68 132.89-33.85 134.99-32.27 137.09-30.7 138.27-28.48 139.44-26.25 139.49-23.45L139.49-23.45Q139.54-23 139.22-22.7 138.89-22.4 138.44-22.4L138.44-22.4 131.69-22.4Q131.04-22.4 130.69-22.68 130.34-22.95 130.09-23.7L130.09-23.7Q129.39-26.35 127.82-27.33 126.24-28.3 123.94-28.3L123.94-28.3Q121.19-28.3 119.59-26.78 117.99-25.25 117.84-21.7L117.84-21.7Q117.69-17.6 117.84-13.3L117.84-13.3Q117.99-9.75 119.59-8.22 121.19-6.7 123.94-6.7L123.94-6.7Q126.24-6.7 127.84-7.7 129.44-8.7 130.09-11.3L130.09-11.3Q130.29-12.05 130.67-12.33 131.04-12.6 131.69-12.6L131.69-12.6 138.44-12.6Q138.89-12.6 139.22-12.3 139.54-12 139.49-11.55L139.49-11.55Q139.44-8.75 138.27-6.53 137.09-4.3 134.99-2.73 132.89-1.15 130.09-0.33 127.29 0.5 123.99 0.5Z" fill="#111111" data-fill-palette-color="primary"></path></g></svg></g></svg></g></svg></g></svg></g></svg></g><defs></defs></svg><rect width="395.52" height="104.69133871982046" fill="none" stroke="none" visibility="hidden"></rect></g></svg></g></svg>